<svg data-name="Layer 2" viewBox="0 0 32 32" xmlns="http://www.w3.org/2000/svg"><path d="M16 8.53a.93.93 0 1 1 .94-.93.93.93 0 0 1-.94.93Z" fill="#9654d3" class="fill-000000"></path><path d="M17.85 26.27H4.79a.93.93 0 0 1-.93-.93V6.67a.93.93 0 0 1 .93-.93h22.4a.93.93 0 0 1 .93.93v2.8H6.66a.93.93 0 0 0 0 1.87h21.47V16A.93.93 0 0 0 30 16V6.67a2.8 2.8 0 0 0-2.8-2.8H4.79A2.8 2.8 0 0 0 2 6.67v18.66a2.8 2.8 0 0 0 2.8 2.8h13.05a.93.93 0 0 0 0-1.87Z" fill="#9654d3" class="fill-000000"></path><path d="M29.07 20.66h-1.48l.27-.27a.93.93 0 0 0-1.32-1.32l-1.21 1.21-1.2-1.2a.93.93 0 0 0-1.33 1.32l.27.27h-1.46a.93.93 0 0 0-.93.93v5.6a.93.93 0 0 0 .93.93h7.47a.93.93 0 0 0 .92-.93v-5.6a.93.93 0 0 0-.93-.94Zm-6.53 1.87h1.85v3.73h-1.85Zm5.6 3.73h-1.88v-3.73h1.88ZM11.33 13.19a.93.93 0 0 0-.93-.93H6.66a.93.93 0 0 0-.93.93v3.73a.93.93 0 0 0 .93.93h3.74a.93.93 0 0 0 .93-.93ZM9.46 16H7.6v-1.87h1.86ZM10.4 18.8H6.66a.93.93 0 0 0-.93.93v3.73a.93.93 0 0 0 .93.93h3.74a.93.93 0 0 0 .93-.93v-3.73a.93.93 0 0 0-.93-.93Zm-.93 3.73H7.6v-1.87h1.86ZM17.87 12.26h-3.74a.93.93 0 0 0-.93.93v3.73a.93.93 0 0 0 .93.93h3.73a.93.93 0 0 0 .93-.93v-3.73a.93.93 0 0 0-.92-.93ZM16.93 16h-1.86v-1.87h1.87ZM21.6 16.93a.93.93 0 0 0 .93-.93v-1.87h1.87V16a.93.93 0 0 0 1.87 0v-2.8a.93.93 0 0 0-.93-.93H21.6a.93.93 0 0 0-.93.93V16a.93.93 0 0 0 .93.93ZM17.87 18.8h-3.74a.93.93 0 0 0-.93.93v3.73a.93.93 0 0 0 .93.93h3.73a.93.93 0 0 0 .93-.93v-3.73a.93.93 0 0 0-.92-.93Zm-.93 3.73h-1.87v-1.87h1.87Z" fill="#9654d3" class="fill-000000"></path></svg>