<svg viewBox="0 0 64 64" xmlns="http://www.w3.org/2000/svg"><path d="M0 0h64v64H0z" data-name="Layer 3" fill="none"></path><g data-name="Design Convert"><path d="M32 57a25 25 0 1 1 25-25 25 25 0 0 1-25 25Zm0-48a23 23 0 1 0 23 23A23 23 0 0 0 32 9Z" fill="#ffffff" class="fill-010101"></path><path d="M43 44a1 1 0 0 1-.71-.29l-22-22a1 1 0 0 1 1.42-1.42l22 22a1 1 0 0 1 0 1.42A1 1 0 0 1 43 44Z" fill="#ffffff" class="fill-010101"></path><path d="M21 44a1 1 0 0 1-.71-.29 1 1 0 0 1 0-1.42l22-22a1 1 0 0 1 1.42 1.42l-22 22A1 1 0 0 1 21 44Z" fill="#ffffff" class="fill-010101"></path></g></svg>