<svg data-name="Layer 3" viewBox="0 0 32 32" xmlns="http://www.w3.org/2000/svg"><path d="m20.87 18.59-1.74 1.74a2 2 0 0 1-2.47.3 14.87 14.87 0 0 1-5.29-5.27 2 2 0 0 1 .32-2.45l1.75-1.75a2.13 2.13 0 0 0 0-3L10.9 5.6a1.55 1.55 0 0 0-2.19 0L6.87 7.44a5.86 5.86 0 0 0-1.2 6.66 25.69 25.69 0 0 0 12 12.1 6 6 0 0 0 6.9-1.08l1.8-1.8a1.55 1.55 0 0 0 0-2.19l-2.55-2.55a2.13 2.13 0 0 0-2.95.01Z" stroke-width="2px" fill="none" stroke="#9654d3" stroke-linecap="round" stroke-linejoin="round" class="stroke-0832ff"></path><path d="M12.66 11.94a2.13 2.13 0 0 0 0-3l-2.54-2.56a1.55 1.55 0 0 0-2.19 0" stroke-width="2px" fill="none" stroke="#9654d3" stroke-linecap="round" stroke-linejoin="round" class="stroke-0832ff"></path><circle cx="18.62" cy="13.01" r="1.5" fill="#9654d3" class="fill-0832ff"></circle><path d="M18.62 8.59A4.41 4.41 0 0 1 23 13M18.62 4.92A8.09 8.09 0 0 1 26.7 13M20.87 18.59l4.86 4.85" fill="none" stroke="#9654d3" stroke-linecap="round" stroke-linejoin="round" class="stroke-0832ff"></path></svg>